<svg width="600" height="360" viewBox="0 0 600 360" xmlns="http://www.w3.org/2000/svg">
  <defs>
    <linearGradient id="bgGrad" x1="0%" y1="0%" x2="100%" y2="100%">
      <stop offset="0%" style="stop-color:#1a1a2e"/>
      <stop offset="100%" style="stop-color:#0f3460"/>
    </linearGradient>
    <linearGradient id="greenGrad" x1="0%" y1="0%" x2="100%" y2="100%">
      <stop offset="0%" style="stop-color:#4CAF50"/>
      <stop offset="100%" style="stop-color:#2196F3"/>
    </linearGradient>
    <linearGradient id="glowGrad" x1="0%" y1="0%" x2="100%" y2="100%">
      <stop offset="0%" style="stop-color:#4CAF50;stop-opacity:0.3"/>
      <stop offset="100%" style="stop-color:#2196F3;stop-opacity:0.1"/>
    </linearGradient>
  </defs>
  <rect x="0" y="0" width="600" height="360" rx="24" fill="url(#bgGrad)"/>
  <circle cx="80" cy="60" r="60" fill="#2196F3" opacity="0.08"/>
  <circle cx="520" cy="300" r="80" fill="#4CAF50" opacity="0.08"/>
  <circle cx="145" cy="175" r="90" fill="url(#glowGrad)" stroke="url(#greenGrad)" stroke-width="2" opacity="0.8"/>
  <polygon points="145,112 178,132 145,142 112,132" fill="url(#greenGrad)"/>
  <rect x="108" y="138" width="74" height="14" rx="3" fill="url(#greenGrad)"/>
  <circle cx="145" cy="112" r="5" fill="#4CAF50"/>
  <line x1="178" y1="132" x2="188" y2="148" stroke="#4CAF50" stroke-width="2.5" stroke-linecap="round"/>
  <circle cx="188" cy="155" r="5" fill="#4CAF50"/>
  <line x1="188" y1="158" x2="182" y2="172" stroke="#4CAF50" stroke-width="1.5" stroke-linecap="round" opacity="0.8"/>
  <line x1="188" y1="158" x2="188" y2="174" stroke="#4CAF50" stroke-width="1.5" stroke-linecap="round" opacity="0.8"/>
  <line x1="188" y1="158" x2="194" y2="172" stroke="#4CAF50" stroke-width="1.5" stroke-linecap="round" opacity="0.8"/>
  <ellipse cx="145" cy="186" rx="28" ry="16" fill="none" stroke="white" stroke-width="2.5" opacity="0.9"/>
  <circle cx="145" cy="186" r="9" fill="url(#greenGrad)" opacity="0.9"/>
  <circle cx="145" cy="186" r="5" fill="white" opacity="0.3"/>
  <circle cx="149" cy="182" r="3" fill="white" opacity="0.8"/>
  <path d="M123 212 Q130 205 138 212 Q145 220 152 212 Q160 205 168 212" fill="none" stroke="#2196F3" stroke-width="2" stroke-linecap="round" opacity="0.8"/>
  <circle cx="123" cy="212" r="3" fill="#4CAF50"/>
  <circle cx="145" cy="220" r="3" fill="#2196F3"/>
  <circle cx="168" cy="212" r="3" fill="#4CAF50"/>
  <circle cx="145" cy="175" r="98" fill="none" stroke="url(#greenGrad)" stroke-width="1" stroke-dasharray="6 4" opacity="0.4"/>
  <text x="265" y="140" font-family="Arial, sans-serif" font-weight="700" font-size="46" fill="white" letter-spacing="-1">Focused</text>
  <text x="265" y="192" font-family="Arial, sans-serif" font-weight="700" font-size="46" fill="url(#greenGrad)" letter-spacing="-1">Learner</text>
  <line x1="265" y1="206" x2="575" y2="206" stroke="url(#greenGrad)" stroke-width="2" stroke-linecap="round"/>
  <text x="265" y="232" font-family="Arial, sans-serif" font-weight="400" font-size="14" fill="white" opacity="0.7" letter-spacing="2">LEARN SMARTER. STAY FOCUSED.</text>
  <rect x="265" y="252" width="88" height="26" rx="13" fill="#4CAF50" opacity="0.2" stroke="#4CAF50" stroke-width="1"/>
  <text x="309" y="269" font-family="Arial, sans-serif" font-size="11" fill="#4CAF50" text-anchor="middle" font-weight="600">AI Powered</text>
  <rect x="362" y="252" width="90" height="26" rx="13" fill="#2196F3" opacity="0.2" stroke="#2196F3" stroke-width="1"/>
  <text x="407" y="269" font-family="Arial, sans-serif" font-size="11" fill="#2196F3" text-anchor="middle" font-weight="600">Sleep Detect</text>
  <rect x="461" y="252" width="106" height="26" rx="13" fill="#9C27B0" opacity="0.2" stroke="#9C27B0" stroke-width="1"/>
  <text x="514" y="269" font-family="Arial, sans-serif" font-size="11" fill="#CE93D8" text-anchor="middle" font-weight="600">Focus Extension</text>
  <rect x="265" y="288" width="80" height="26" rx="13" fill="#FF9800" opacity="0.2" stroke="#FF9800" stroke-width="1"/>
  <text x="305" y="305" font-family="Arial, sans-serif" font-size="11" fill="#FF9800" text-anchor="middle" font-weight="600">Quiz System</text>
  <rect x="354" y="288" width="86" height="26" rx="13" fill="#f44336" opacity="0.2" stroke="#f44336" stroke-width="1"/>
  <text x="397" y="305" font-family="Arial, sans-serif" font-size="11" fill="#ef9a9a" text-anchor="middle" font-weight="600">Fun Puzzles</text>
  <rect x="449" y="288" width="116" height="26" rx="13" fill="#00BCD4" opacity="0.2" stroke="#00BCD4" stroke-width="1"/>
  <text x="507" y="305" font-family="Arial, sans-serif" font-size="11" fill="#80DEEA" text-anchor="middle" font-weight="600">AI Translation</text>
  <circle cx="265" cy="338" r="3" fill="#4CAF50" opacity="0.6"/>
  <circle cx="278" cy="338" r="3" fill="#2196F3" opacity="0.6"/>
  <circle cx="291" cy="338" r="3" fill="#9C27B0" opacity="0.6"/>
  <circle cx="304" cy="338" r="3" fill="#FF9800" opacity="0.6"/>
  <circle cx="317" cy="338" r="3" fill="#f44336" opacity="0.6"/>
  <text x="572" y="345" font-family="Arial, sans-serif" font-size="11" fill="white" opacity="0.3" text-anchor="end">v1.0</text>
</svg>
